<svg version="1.1" xmlns="http://www.w3.org/2000/svg" xmlns:xlink="http://www.w3.org/1999/xlink" width="23" height="19" viewBox="0 0 23 19"><path id="Shape-5" d="M21.161,11.345 C21.161,11.345 1.839,11.345 1.839,11.345 C0.824,11.345 -0.006,10.515 -0.006,9.500 C-0.006,8.485 0.824,7.655 1.839,7.655 C1.839,7.655 21.115,7.655 21.115,7.655 C22.130,7.655 23.006,8.485 23.006,9.500 C23.006,10.515 22.176,11.345 21.161,11.345 zM21.161,3.688 C21.161,3.688 1.839,3.688 1.839,3.688 C0.824,3.688 -0.006,2.857 -0.006,1.842 C-0.006,0.828 0.824,-0.003 1.839,-0.003 C1.839,-0.003 21.115,-0.003 21.115,-0.003 C22.130,-0.003 23.006,0.828 23.006,1.842 C23.006,2.857 22.176,3.688 21.161,3.688 zM1.839,15.312 C1.839,15.312 21.115,15.312 21.115,15.312 C22.130,15.312 23.006,16.143 23.006,17.158 C23.006,18.172 22.176,19.003 21.161,19.003 C21.161,19.003 1.839,19.003 1.839,19.003 C0.824,19.003 -0.006,18.172 -0.006,17.158 C-0.006,16.143 0.824,15.312 1.839,15.312 z" fill="#FFFFFF" /></svg>