<svg version="1.1" xmlns="http://www.w3.org/2000/svg" xmlns:xlink="http://www.w3.org/1999/xlink" width="47" height="47" viewBox="0 0 47 47"><path id="Shape-10-copy-3" d="M36.398,47.000 C36.398,47.000 32.710,47.000 32.710,47.000 C29.375,47.000 26.343,45.432 24.474,42.801 C24.423,42.751 14.065,27.069 14.065,27.069 C13.156,25.753 13.661,23.881 15.126,22.920 C16.592,21.959 18.512,22.262 19.371,23.578 C19.371,23.578 23.059,29.193 23.059,29.193 C23.312,29.547 23.867,29.345 23.867,28.940 C23.867,28.940 23.867,7.440 23.867,7.440 C23.867,5.568 25.535,4.051 27.455,4.304 C29.072,4.506 30.234,5.973 30.234,7.592 C30.234,7.592 30.234,19.632 30.234,19.632 C30.840,19.025 31.648,18.671 32.507,18.671 C33.922,18.671 35.135,19.632 35.539,20.896 C36.145,20.188 37.004,19.733 37.964,19.733 C39.429,19.733 40.693,20.745 41.046,22.161 C41.703,21.453 42.714,20.998 43.825,21.150 C45.392,21.352 46.554,22.819 46.554,24.488 C46.554,24.488 46.554,36.832 46.554,36.832 C46.554,36.882 46.554,36.984 46.554,37.034 C46.503,42.548 41.956,47.000 36.398,47.000 zM16.079,17.592 C15.926,17.847 15.621,18.000 15.317,18.000 C15.012,18.000 14.707,17.898 14.504,17.643 C14.504,17.643 11.254,13.821 11.254,13.821 C11.102,13.617 11.000,13.413 11.000,13.158 C11.000,13.056 11.051,12.903 11.102,12.750 C11.254,12.393 11.609,12.139 12.016,12.139 C12.016,12.139 13.742,12.139 13.742,12.139 C13.742,12.139 13.742,1.282 13.742,1.282 C13.742,0.569 14.301,0.008 15.012,0.008 C15.723,0.008 16.332,0.569 16.332,1.282 C16.332,1.282 16.332,12.139 16.332,12.139 C16.332,12.139 17.958,12.139 17.958,12.139 C18.364,12.139 18.770,12.342 18.923,12.699 C19.075,13.056 19.024,13.464 18.821,13.769 C18.821,13.769 16.079,17.592 16.079,17.592 zM6.931,5.861 C6.931,5.861 5.261,5.861 5.261,5.861 C5.261,5.861 5.261,16.718 5.261,16.718 C5.261,17.431 4.705,17.992 3.997,17.992 C3.288,17.992 2.732,17.431 2.732,16.718 C2.732,16.718 2.732,5.861 2.732,5.861 C2.732,5.861 1.012,5.861 1.012,5.861 C0.607,5.861 0.253,5.607 0.101,5.250 C0.050,5.148 -0.000,4.995 -0.000,4.842 C-0.000,4.587 0.101,4.383 0.253,4.179 C0.253,4.179 3.491,0.357 3.491,0.357 C3.693,0.102 3.997,0.000 4.300,0.000 C4.603,0.000 4.857,0.153 5.059,0.408 C5.059,0.408 7.791,4.231 7.791,4.231 C8.043,4.536 8.043,4.944 7.892,5.301 C7.689,5.657 7.335,5.861 6.931,5.861 z" fill="#FFFFFF" /></svg>