<svg version="1.1" xmlns="http://www.w3.org/2000/svg" xmlns:xlink="http://www.w3.org/1999/xlink" width="32" height="32" viewBox="0 0 32 32"><path id="Shape-3-copy-2" d="M16.001,0.000 C7.166,0.000 0.000,7.161 0.000,16.000 C0.000,24.835 7.166,32.000 16.001,32.000 C24.836,32.000 32.002,24.835 32.002,16.000 C32.002,7.161 24.836,0.000 16.001,0.000 zM14.154,5.678 C14.833,5.405 15.538,5.643 16.001,6.279 C16.464,5.643 17.169,5.405 17.848,5.678 C18.527,5.946 19.141,6.755 18.890,7.888 C18.713,8.679 18.163,9.436 17.303,10.080 C16.658,10.560 16.075,10.806 16.053,10.819 C16.036,10.824 16.018,10.828 16.001,10.828 C15.984,10.828 15.966,10.824 15.949,10.819 C15.928,10.806 15.344,10.560 14.699,10.080 C13.839,9.436 13.290,8.679 13.112,7.888 C12.861,6.755 13.475,5.946 14.154,5.678 zM25.394,17.509 C25.143,22.473 21.026,26.430 16.001,26.430 C10.976,26.430 6.859,22.473 6.608,17.509 C5.631,17.271 4.900,16.385 4.900,15.334 C4.900,15.027 5.146,14.781 5.449,14.781 C5.756,14.781 6.003,15.027 6.003,15.334 C6.003,15.965 6.513,16.476 7.144,16.476 C7.776,16.476 8.290,15.965 8.290,15.334 C8.290,15.027 8.537,14.781 8.840,14.781 C9.142,14.781 9.389,15.027 9.389,15.334 C9.389,16.376 8.671,17.259 7.706,17.505 C7.944,21.678 11.287,25.042 15.452,25.310 C15.452,25.310 15.452,18.404 15.452,18.404 C15.452,18.382 15.452,18.366 15.461,18.344 C14.872,18.227 14.319,17.911 13.912,17.397 C13.912,17.397 12.797,15.991 12.797,15.991 C11.992,14.980 12.710,13.483 14.007,13.483 C14.007,13.483 17.995,13.483 17.995,13.483 C19.288,13.483 20.010,14.980 19.206,15.991 C19.206,15.991 18.090,17.397 18.090,17.397 C17.683,17.911 17.130,18.227 16.542,18.344 C16.542,18.344 16.550,25.310 16.550,25.310 C20.715,25.042 24.058,21.678 24.296,17.505 C23.331,17.259 22.613,16.376 22.613,15.334 C22.613,15.027 22.860,14.781 23.163,14.781 C23.465,14.781 23.712,15.027 23.712,15.334 C23.712,15.965 24.226,16.476 24.858,16.476 C25.489,16.476 26.000,15.965 26.000,15.334 C26.000,15.027 26.246,14.781 26.553,14.781 C26.856,14.781 27.102,15.027 27.102,15.334 C27.102,16.385 26.371,17.271 25.394,17.509 z" fill="#FFFFFF" /></svg>